<?xml version="1.0" standalone="no"?>
<!DOCTYPE svg PUBLIC "-//W3C//DTD SVG 20010904//EN"
 "http://www.w3.org/TR/2001/REC-SVG-20010904/DTD/svg10.dtd">
<svg version="1.0" xmlns="http://www.w3.org/2000/svg"
 width="44.000000pt" height="44.000000pt" viewBox="0 0 44.000000 44.000000"
 preserveAspectRatio="xMidYMid meet">

<g transform="translate(0.000000,44.000000) scale(0.100000,-0.100000)"
fill="#000000" stroke="none">
<path d="M173 314 c-17 -9 -34 -23 -38 -32 -10 -25 16 -32 45 -10 18 13 39 18
65 16 48 -4 57 16 14 31 -41 14 -47 14 -86 -5z"/>
<path d="M230 220 c0 -16 7 -20 30 -20 27 0 30 -2 20 -19 -7 -14 -7 -22 1 -27
16 -10 39 24 39 58 0 27 -2 28 -45 28 -38 0 -45 -3 -45 -20z"/>
</g>
</svg>
