<svg width="130" height="35" viewBox="0 0 130 35" fill="none" xmlns="http://www.w3.org/2000/svg">
<path d="M22.625 16.6633L23.0698 15.3945H23.0778L23.0842 15.3961L23.529 16.6633H22.625Z" fill="#222222"/>
<path fill-rule="evenodd" clip-rule="evenodd" d="M18 16.268C18 13.3584 20.8656 11 24.4 11C27.9344 11 30.8 13.3584 30.8 16.268C30.8 19.1776 27.9344 21.536 24.4 21.536C24.0023 21.5352 23.6052 21.5047 23.212 21.4448C22.5032 21.9472 20.8592 23.1104 20.7488 23.1872C20.6088 23.2848 20.3944 23.2896 20.4808 22.9272C20.5512 22.6352 20.9024 21.2704 21.036 20.7496C19.2144 19.8216 18 18.1616 18 16.268ZM26.392 17.324H25.4904V14.9496C25.4904 14.8548 25.4527 14.7638 25.3857 14.6967C25.3186 14.6297 25.2276 14.592 25.1328 14.592C25.038 14.592 24.947 14.6297 24.8799 14.6967C24.8129 14.7638 24.7752 14.8548 24.7752 14.9496V17.5072C24.7752 17.5269 24.7771 17.5461 24.7808 17.5648C24.7723 17.6081 24.7735 17.6528 24.7843 17.6957C24.7951 17.7385 24.8153 17.7784 24.8434 17.8125C24.8714 17.8466 24.9067 17.8741 24.9467 17.893C24.9866 17.9118 25.0302 17.9216 25.0744 17.9216H26.392C26.4715 17.9216 26.5477 17.89 26.6038 17.8338C26.66 17.7777 26.6916 17.7015 26.6916 17.622C26.6916 17.5425 26.66 17.4663 26.6038 17.4102C26.5477 17.354 26.4715 17.3224 26.392 17.3224M21.7312 14.6424H19.792C19.7045 14.6424 19.6205 14.6772 19.5587 14.7391C19.4968 14.8009 19.462 14.8849 19.462 14.9724C19.462 15.0599 19.4968 15.1439 19.5587 15.2057C19.6205 15.2676 19.7045 15.3024 19.792 15.3024H20.4224V17.6256C20.4228 17.7108 20.4568 17.7923 20.5171 17.8525C20.5773 17.9128 20.6588 17.9468 20.744 17.9472H20.8144C20.8566 17.9473 20.8985 17.9391 20.9375 17.9229C20.9765 17.9068 21.0119 17.8831 21.0418 17.8532C21.0716 17.8233 21.0952 17.7878 21.1112 17.7487C21.1273 17.7097 21.1354 17.6678 21.1352 17.6256V15.304H21.7312C21.8186 15.304 21.9025 15.2693 21.9643 15.2075C22.0261 15.1457 22.0608 15.0618 22.0608 14.9744C22.0608 14.887 22.0261 14.8031 21.9643 14.7413C21.9025 14.6795 21.8186 14.6448 21.7312 14.6448M29.2752 17.4328L28.2696 16.1128L29.1784 15.2048C29.2375 15.1456 29.2706 15.0654 29.2706 14.9817C29.2705 14.8981 29.2372 14.8179 29.178 14.7588C29.1188 14.6997 29.0386 14.6666 28.9549 14.6666C28.8713 14.6667 28.7911 14.7 28.732 14.7592L27.608 15.8832V14.9504C27.608 14.8556 27.5703 14.7646 27.5033 14.6975C27.4362 14.6305 27.3452 14.5928 27.2504 14.5928C27.1556 14.5928 27.0646 14.6305 26.9975 14.6975C26.9305 14.7646 26.8928 14.8556 26.8928 14.9504V17.5872C26.8928 17.682 26.9305 17.773 26.9975 17.8401C27.0646 17.9071 27.1556 17.9448 27.2504 17.9448C27.3452 17.9448 27.4362 17.9071 27.5033 17.8401C27.5703 17.773 27.608 17.682 27.608 17.5872V16.7736L27.8128 16.5696L28.7632 17.8176C28.7885 17.8512 28.8202 17.8795 28.8565 17.9009C28.8927 17.9223 28.9328 17.9363 28.9745 17.9421C29.0162 17.948 29.0586 17.9456 29.0994 17.9351C29.1401 17.9246 29.1784 17.9061 29.212 17.8808C29.2456 17.8555 29.2739 17.8238 29.2953 17.7875C29.3167 17.7513 29.3307 17.7112 29.3365 17.6695C29.3424 17.6278 29.34 17.5854 29.3295 17.5446C29.319 17.5039 29.3005 17.4656 29.2752 17.432M24.5072 17.5184L23.5392 14.8744L23.536 14.8712C23.4744 14.7096 23.296 14.5928 23.0832 14.5928C22.8472 14.5928 22.652 14.7368 22.6136 14.9256L22.5944 14.9688L21.6448 17.5184C21.6166 17.5985 21.6213 17.6865 21.658 17.7631C21.6947 17.8397 21.7603 17.8986 21.8404 17.9268C21.9205 17.955 22.0085 17.9503 22.0851 17.9136C22.1617 17.8769 22.2206 17.8113 22.2488 17.7312L22.4136 17.2616H23.7368L23.9008 17.7312C23.929 17.8114 23.9879 17.8771 24.0646 17.9139C24.1413 17.9506 24.2294 17.9554 24.3096 17.9272C24.3898 17.899 24.4555 17.8401 24.4923 17.7634C24.529 17.6867 24.5338 17.5986 24.5056 17.5184" fill="#222222"/>
<path d="M43.2041 12.2246C43.1904 15.7383 42.001 18.9512 37.626 21.0977L37.0244 20.2773C39.3145 19.1699 40.6885 17.7617 41.4268 16.1211L37.2568 16.5176L37.0791 15.5742L41.7549 15.2598C41.9668 14.5762 42.0898 13.8584 42.1377 13.1133H37.6943V12.2246H43.2041ZM46.3076 10.9531V15.9023H48.2764V16.8047H46.3076V23.1074H45.2412V10.9531H46.3076ZM55.3037 12.2246C55.29 15.7383 54.1006 18.9512 49.7256 21.0977L49.124 20.2773C51.4141 19.1699 52.7881 17.7617 53.5264 16.1211L49.3564 16.5176L49.1787 15.5742L53.8545 15.2598C54.0664 14.5762 54.1895 13.8584 54.2373 13.1133H49.7939V12.2246H55.3037ZM58.4072 10.9531V15.9023H60.376V16.8047H58.4072V23.1074H57.3408V10.9531H58.4072ZM66.6377 11.7461C69.2217 11.7598 71.0811 13.0176 71.0811 14.9316C71.0811 16.7432 69.4678 17.9463 67.1572 18.0898V20.6465H72.2295V21.5488H61.1006V20.6465H66.1045V18.0898C63.8008 17.9395 62.1943 16.7363 62.1943 14.9316C62.1943 13.0176 64.0537 11.7598 66.6377 11.7461ZM66.6377 12.6348C64.6689 12.6348 63.2334 13.5645 63.2334 14.9316C63.2334 16.3398 64.6689 17.2422 66.6377 17.2559C68.6064 17.2422 70.042 16.3398 70.042 14.9316C70.042 13.5645 68.6064 12.6348 66.6377 12.6348ZM84.2744 17.5156V18.3906H73.1865V17.5156H78.1904V16.2168H74.6631V11.2812H82.8936V12.1426H75.7432V13.3047H82.5654V14.1387H75.7432V15.3828H82.9619V16.2168H79.2568V17.5156H84.2744ZM82.8389 19.4707V23.1074H81.7451V20.3457H74.4307V19.4707H82.8389ZM92.874 12.9219C92.874 14.5762 94.1318 16.0938 95.8955 16.6953L95.3076 17.543C93.9609 17.0508 92.9014 16.0459 92.3682 14.7812C91.8486 16.21 90.7686 17.3379 89.3467 17.8848L88.7725 17.0234C90.5908 16.3398 91.8076 14.7129 91.8213 12.8398V11.582H92.874V12.9219ZM98.3154 10.9531V14.125H100.147V15.0273H98.3154V18.3496H97.249V10.9531H98.3154ZM94.4189 18.6641C96.9209 18.6641 98.4248 19.4707 98.4248 20.8652C98.4248 22.2871 96.9209 23.0801 94.4189 23.0801C91.917 23.0801 90.3857 22.2871 90.3857 20.8652C90.3857 19.4707 91.917 18.6641 94.4189 18.6641ZM94.4189 19.5254C92.5869 19.5254 91.4521 20.0312 91.4658 20.8652C91.4521 21.7266 92.5869 22.2188 94.4189 22.2324C96.2646 22.2188 97.3857 21.7266 97.3857 20.8652C97.3857 20.0312 96.2646 19.5254 94.4189 19.5254ZM110.415 10.9531V13.9336H112.247V14.8359H110.415V17.8574H109.349V10.9531H110.415ZM106.874 11.7871V12.6621H102.554V16.2441C104.994 16.2578 106.382 16.1689 108.009 15.8477L108.146 16.7227C106.437 17.0645 104.987 17.1328 102.431 17.1328H101.487V11.7871H106.874ZM110.415 18.4863V22.9434H102.745V18.4863H110.415ZM103.798 19.3613V22.0684H109.349V19.3613H103.798Z" fill="#222222"/>
<rect x="0.5" y="0.5" width="129" height="34" rx="9.5" stroke="#E2E2E2"/>
</svg>
