<?xml version="1.0" standalone="no"?>
<!DOCTYPE svg PUBLIC "-//W3C//DTD SVG 20010904//EN"
 "http://www.w3.org/TR/2001/REC-SVG-20010904/DTD/svg10.dtd">
<svg version="1.0" xmlns="http://www.w3.org/2000/svg"
 width="512.000000pt" height="512.000000pt" viewBox="0 0 512.000000 512.000000"
 preserveAspectRatio="xMidYMid meet">

<g transform="translate(0.000000,512.000000) scale(0.100000,-0.100000)"
fill="#000000" stroke="none">
<path d="M2315 5109 c-798 -81 -1501 -518 -1927 -1196 -487 -774 -516 -1777
-75 -2578 199 -363 487 -676 837 -910 242 -162 602 -313 880 -369 214 -43 295
-51 530 -51 236 0 333 10 532 51 879 183 1616 843 1897 1699 93 282 126 493
126 805 0 301 -32 513 -116 775 -124 390 -330 728 -622 1024 -398 403 -895
653 -1462 737 -122 18 -477 26 -600 13z m525 -220 c326 -38 675 -161 958 -337
288 -179 570 -460 752 -752 68 -108 179 -338 220 -455 113 -323 159 -726 120
-1050 -32 -269 -111 -533 -231 -775 -132 -264 -265 -447 -473 -648 -368 -356
-816 -570 -1346 -643 -217 -30 -548 -13 -790 41 -514 115 -979 403 -1316 815
-195 238 -366 577 -443 878 -144 561 -88 1117 164 1632 271 553 758 984 1340
1183 335 115 692 153 1045 111z"/>
<path d="M2360 3706 c-85 -19 -129 -35 -211 -78 -229 -117 -359 -329 -359
-583 0 -260 121 -450 363 -571 98 -50 150 -69 341 -125 209 -62 301 -99 353
-144 51 -44 67 -81 61 -147 -5 -44 -11 -57 -46 -89 -55 -52 -127 -71 -256 -71
-111 1 -192 20 -268 65 -58 34 -140 122 -172 185 -15 29 -29 52 -32 52 -8 0
-408 -232 -423 -246 -11 -10 -9 -21 12 -67 106 -233 317 -396 598 -464 59 -14
115 -18 274 -18 233 1 305 15 464 91 77 38 108 60 175 127 133 133 186 265
186 461 0 231 -85 392 -269 511 -94 61 -190 101 -422 175 -363 116 -450 181
-424 317 9 48 66 104 126 122 111 34 270 7 362 -63 37 -28 117 -132 129 -168
3 -8 73 27 209 106 112 66 210 124 217 129 15 12 -13 64 -90 169 -118 161
-307 280 -510 322 -92 19 -306 20 -388 2z"/>
</g>
</svg>
